<svg width="50" height="51" viewBox="0 0 50 51" fill="none" xmlns="http://www.w3.org/2000/svg">
<path d="M25 0.5C11.1875 0.5 0 11.9705 0 26.1323C0 37.4747 7.15625 47.0547 17.0938 50.451C18.3438 50.6753 18.8125 49.9063 18.8125 49.2335C18.8125 48.6247 18.7813 46.6062 18.7813 44.4595C12.5 45.645 10.875 42.8895 10.375 41.4477C10.0938 40.7107 8.875 38.4359 7.8125 37.8271C6.9375 37.3465 5.6875 36.161 7.78125 36.129C9.75 36.0969 11.1562 37.9873 11.625 38.7563C13.875 42.6332 17.4688 41.5438 18.9062 40.8709C19.125 39.2048 19.7813 38.0834 20.5 37.4426C14.9375 36.8018 9.125 34.591 9.125 24.7866C9.125 21.9991 10.0938 19.6922 11.6875 17.898C11.4375 17.2571 10.5625 14.6298 11.9375 11.1054C11.9375 11.1054 14.0312 10.4325 18.8125 13.7327C20.8125 13.156 22.9375 12.8676 25.0625 12.8676C27.1875 12.8676 29.3125 13.156 31.3125 13.7327C36.0938 10.4005 38.1875 11.1054 38.1875 11.1054C39.5625 14.6298 38.6875 17.2571 38.4375 17.898C40.0312 19.6922 41 21.9671 41 24.7866C41 34.6231 35.1563 36.8018 29.5938 37.4426C30.5 38.2436 31.2813 39.7816 31.2813 42.1846C31.2813 45.6129 31.25 48.3684 31.25 49.2335C31.25 49.9063 31.7188 50.7074 32.9688 50.451C37.932 48.7336 42.2448 45.4634 45.3001 41.1009C48.3553 36.7383 49.9991 31.5031 50 26.1323C50 11.9705 38.8125 0.5 25 0.5Z" fill="#04371D"/>
</svg>
