<svg width="48" height="49" viewBox="0 0 48 49" fill="none" xmlns="http://www.w3.org/2000/svg">
<mask id="path-1-inside-1_5_67" fill="white">
<path d="M20.6667 7.48611C20.6667 5.50067 19.8941 3.59655 18.5188 2.19263C17.1435 0.788713 15.2783 0 13.3333 0C11.3884 0 9.52315 0.788713 8.14788 2.19263C6.77262 3.59655 6 5.50067 6 7.48611C6 9.47155 6.77262 11.3757 8.14788 12.7796C9.52315 14.1835 11.3884 14.9722 13.3333 14.9722C15.2783 14.9722 17.1435 14.1835 18.5188 12.7796C19.8941 11.3757 20.6667 9.47155 20.6667 7.48611ZM8.66667 7.48611C8.66667 6.86051 8.78737 6.24103 9.0219 5.66305C9.25642 5.08507 9.60016 4.5599 10.0335 4.11753C10.4668 3.67516 10.9813 3.32426 11.5475 3.08485C12.1137 2.84544 12.7205 2.72222 13.3333 2.72222C13.9462 2.72222 14.553 2.84544 15.1192 3.08485C15.6854 3.32426 16.1998 3.67516 16.6332 4.11753C17.0665 4.5599 17.4102 5.08507 17.6448 5.66305C17.8793 6.24103 18 6.86051 18 7.48611C18 8.74957 17.5083 9.96129 16.6332 10.8547C15.758 11.7481 14.571 12.25 13.3333 12.25C12.0957 12.25 10.9087 11.7481 10.0335 10.8547C9.15833 9.96129 8.66667 8.74957 8.66667 7.48611ZM4 17.6944H15.1547C14.7173 18.5383 14.392 19.453 14.2 20.4167H4C3.64638 20.4167 3.30724 20.5601 3.05719 20.8153C2.80714 21.0706 2.66667 21.4168 2.66667 21.7778V23.1389C2.66667 26.5689 5.59733 30.2548 10.9227 31.115C10.064 31.7139 9.34933 32.5115 8.84 33.4398C3.21333 31.8854 0 27.4591 0 23.1389V21.7778C0 20.6948 0.421427 19.6562 1.17157 18.8904C1.92172 18.1247 2.93913 17.6944 4 17.6944ZM18.344 17.6944C19.688 16.0339 21.7227 14.9722 24 14.9722C25.597 14.9694 27.151 15.4999 28.425 16.483C29.699 17.466 30.623 18.8475 31.056 20.4167C31.442 21.8172 31.4202 23.3022 30.9934 24.6904C30.5666 26.0786 29.7532 27.3099 28.6524 28.2341C27.5517 29.1583 26.2112 29.7355 24.7946 29.8952C23.3779 30.0548 21.9464 29.7901 20.6747 29.1332C19.6955 28.6245 18.8408 27.8977 18.1738 27.0065C17.5068 26.1152 17.0444 25.0824 16.8209 23.9843C16.5975 22.8862 16.6185 21.7508 16.8826 20.6621C17.1467 19.5734 17.647 18.5592 18.3467 17.6944H18.344ZM19.784 20.4167C19.5214 20.9822 19.3704 21.595 19.3398 22.2201C19.3091 22.8452 19.3994 23.4704 19.6054 24.0599C19.8114 24.6493 20.1292 25.1916 20.5405 25.6558C20.9518 26.1199 21.4487 26.4968 22.0027 26.7649C22.5567 27.033 23.157 27.1871 23.7693 27.2184C24.3817 27.2497 24.994 27.1575 25.5715 26.9472C26.149 26.7369 26.6802 26.4125 27.1348 25.9926C27.5895 25.5727 27.9587 25.0655 28.2213 24.5C28.7518 23.3575 28.8159 22.0466 28.3995 20.8559C27.9832 19.6651 27.1205 18.6919 26.0013 18.1504C24.8821 17.6089 23.598 17.5435 22.4316 17.9685C21.2651 18.3935 20.3118 19.2741 19.7813 20.4167H19.784ZM39.16 33.4398C38.6521 32.511 37.939 31.7159 37.0773 31.1177C42.4 30.2548 45.3333 26.5662 45.3333 23.1389V21.7778C45.3333 21.4168 45.1929 21.0706 44.9428 20.8153C44.6928 20.5601 44.3536 20.4167 44 20.4167H33.8C33.6116 19.4675 33.291 18.5508 32.848 17.6944H44C45.0609 17.6944 46.0783 18.1247 46.8284 18.8904C47.5786 19.6562 48 20.6948 48 21.7778V23.1389C48 27.4591 44.784 31.8827 39.16 33.4398ZM35.9653 33.6766C35.2375 33.0244 34.3018 32.6653 33.3333 32.6667H14.6667C14.141 32.6652 13.6202 32.7699 13.1343 32.9746C12.6483 33.1793 12.2068 33.48 11.8351 33.8594C11.4634 34.2389 11.1688 34.6896 10.9683 35.1857C10.7678 35.6817 10.6653 36.2134 10.6667 36.75V38.1111C10.6667 43.4766 15.6267 49 24 49C32.3733 49 37.3333 43.4766 37.3333 38.1111V36.75C37.3333 35.525 36.8053 34.4252 35.9653 33.6739V33.6766ZM13.3333 36.75C13.3333 36.389 13.4738 36.0428 13.7239 35.7875C13.9739 35.5323 14.313 35.3889 14.6667 35.3889H33.3333C33.687 35.3889 34.0261 35.5323 34.2761 35.7875C34.5262 36.0428 34.6667 36.389 34.6667 36.75V38.1111C34.6667 42.0257 30.848 46.2778 24 46.2778C17.152 46.2778 13.3333 42.0257 13.3333 38.1111V36.75ZM34.6667 0C36.6116 0 38.4769 0.788713 39.8521 2.19263C41.2274 3.59655 42 5.50067 42 7.48611C42 9.47155 41.2274 11.3757 39.8521 12.7796C38.4769 14.1835 36.6116 14.9722 34.6667 14.9722C32.7217 14.9722 30.8565 14.1835 29.4812 12.7796C28.106 11.3757 27.3333 9.47155 27.3333 7.48611C27.3333 5.50067 28.106 3.59655 29.4812 2.19263C30.8565 0.788713 32.7217 0 34.6667 0ZM34.6667 2.72222C33.429 2.72222 32.242 3.22413 31.3668 4.11753C30.4917 5.01094 30 6.22265 30 7.48611C30 8.74957 30.4917 9.96129 31.3668 10.8547C32.242 11.7481 33.429 12.25 34.6667 12.25C35.9043 12.25 37.0913 11.7481 37.9665 10.8547C38.8417 9.96129 39.3333 8.74957 39.3333 7.48611C39.3333 6.22265 38.8417 5.01094 37.9665 4.11753C37.0913 3.22413 35.9043 2.72222 34.6667 2.72222Z"/>
</mask>
<path d="M20.6667 7.48611C20.6667 5.50067 19.8941 3.59655 18.5188 2.19263C17.1435 0.788713 15.2783 0 13.3333 0C11.3884 0 9.52315 0.788713 8.14788 2.19263C6.77262 3.59655 6 5.50067 6 7.48611C6 9.47155 6.77262 11.3757 8.14788 12.7796C9.52315 14.1835 11.3884 14.9722 13.3333 14.9722C15.2783 14.9722 17.1435 14.1835 18.5188 12.7796C19.8941 11.3757 20.6667 9.47155 20.6667 7.48611ZM8.66667 7.48611C8.66667 6.86051 8.78737 6.24103 9.0219 5.66305C9.25642 5.08507 9.60016 4.5599 10.0335 4.11753C10.4668 3.67516 10.9813 3.32426 11.5475 3.08485C12.1137 2.84544 12.7205 2.72222 13.3333 2.72222C13.9462 2.72222 14.553 2.84544 15.1192 3.08485C15.6854 3.32426 16.1998 3.67516 16.6332 4.11753C17.0665 4.5599 17.4102 5.08507 17.6448 5.66305C17.8793 6.24103 18 6.86051 18 7.48611C18 8.74957 17.5083 9.96129 16.6332 10.8547C15.758 11.7481 14.571 12.25 13.3333 12.25C12.0957 12.25 10.9087 11.7481 10.0335 10.8547C9.15833 9.96129 8.66667 8.74957 8.66667 7.48611ZM4 17.6944H15.1547C14.7173 18.5383 14.392 19.453 14.2 20.4167H4C3.64638 20.4167 3.30724 20.5601 3.05719 20.8153C2.80714 21.0706 2.66667 21.4168 2.66667 21.7778V23.1389C2.66667 26.5689 5.59733 30.2548 10.9227 31.115C10.064 31.7139 9.34933 32.5115 8.84 33.4398C3.21333 31.8854 0 27.4591 0 23.1389V21.7778C0 20.6948 0.421427 19.6562 1.17157 18.8904C1.92172 18.1247 2.93913 17.6944 4 17.6944ZM18.344 17.6944C19.688 16.0339 21.7227 14.9722 24 14.9722C25.597 14.9694 27.151 15.4999 28.425 16.483C29.699 17.466 30.623 18.8475 31.056 20.4167C31.442 21.8172 31.4202 23.3022 30.9934 24.6904C30.5666 26.0786 29.7532 27.3099 28.6524 28.2341C27.5517 29.1583 26.2112 29.7355 24.7946 29.8952C23.3779 30.0548 21.9464 29.7901 20.6747 29.1332C19.6955 28.6245 18.8408 27.8977 18.1738 27.0065C17.5068 26.1152 17.0444 25.0824 16.8209 23.9843C16.5975 22.8862 16.6185 21.7508 16.8826 20.6621C17.1467 19.5734 17.647 18.5592 18.3467 17.6944H18.344ZM19.784 20.4167C19.5214 20.9822 19.3704 21.595 19.3398 22.2201C19.3091 22.8452 19.3994 23.4704 19.6054 24.0599C19.8114 24.6493 20.1292 25.1916 20.5405 25.6558C20.9518 26.1199 21.4487 26.4968 22.0027 26.7649C22.5567 27.033 23.157 27.1871 23.7693 27.2184C24.3817 27.2497 24.994 27.1575 25.5715 26.9472C26.149 26.7369 26.6802 26.4125 27.1348 25.9926C27.5895 25.5727 27.9587 25.0655 28.2213 24.5C28.7518 23.3575 28.8159 22.0466 28.3995 20.8559C27.9832 19.6651 27.1205 18.6919 26.0013 18.1504C24.8821 17.6089 23.598 17.5435 22.4316 17.9685C21.2651 18.3935 20.3118 19.2741 19.7813 20.4167H19.784ZM39.16 33.4398C38.6521 32.511 37.939 31.7159 37.0773 31.1177C42.4 30.2548 45.3333 26.5662 45.3333 23.1389V21.7778C45.3333 21.4168 45.1929 21.0706 44.9428 20.8153C44.6928 20.5601 44.3536 20.4167 44 20.4167H33.8C33.6116 19.4675 33.291 18.5508 32.848 17.6944H44C45.0609 17.6944 46.0783 18.1247 46.8284 18.8904C47.5786 19.6562 48 20.6948 48 21.7778V23.1389C48 27.4591 44.784 31.8827 39.16 33.4398ZM35.9653 33.6766C35.2375 33.0244 34.3018 32.6653 33.3333 32.6667H14.6667C14.141 32.6652 13.6202 32.7699 13.1343 32.9746C12.6483 33.1793 12.2068 33.48 11.8351 33.8594C11.4634 34.2389 11.1688 34.6896 10.9683 35.1857C10.7678 35.6817 10.6653 36.2134 10.6667 36.75V38.1111C10.6667 43.4766 15.6267 49 24 49C32.3733 49 37.3333 43.4766 37.3333 38.1111V36.75C37.3333 35.525 36.8053 34.4252 35.9653 33.6739V33.6766ZM13.3333 36.75C13.3333 36.389 13.4738 36.0428 13.7239 35.7875C13.9739 35.5323 14.313 35.3889 14.6667 35.3889H33.3333C33.687 35.3889 34.0261 35.5323 34.2761 35.7875C34.5262 36.0428 34.6667 36.389 34.6667 36.75V38.1111C34.6667 42.0257 30.848 46.2778 24 46.2778C17.152 46.2778 13.3333 42.0257 13.3333 38.1111V36.75ZM34.6667 0C36.6116 0 38.4769 0.788713 39.8521 2.19263C41.2274 3.59655 42 5.50067 42 7.48611C42 9.47155 41.2274 11.3757 39.8521 12.7796C38.4769 14.1835 36.6116 14.9722 34.6667 14.9722C32.7217 14.9722 30.8565 14.1835 29.4812 12.7796C28.106 11.3757 27.3333 9.47155 27.3333 7.48611C27.3333 5.50067 28.106 3.59655 29.4812 2.19263C30.8565 0.788713 32.7217 0 34.6667 0ZM34.6667 2.72222C33.429 2.72222 32.242 3.22413 31.3668 4.11753C30.4917 5.01094 30 6.22265 30 7.48611C30 8.74957 30.4917 9.96129 31.3668 10.8547C32.242 11.7481 33.429 12.25 34.6667 12.25C35.9043 12.25 37.0913 11.7481 37.9665 10.8547C38.8417 9.96129 39.3333 8.74957 39.3333 7.48611C39.3333 6.22265 38.8417 5.01094 37.9665 4.11753C37.0913 3.22413 35.9043 2.72222 34.6667 2.72222Z" fill="#FF8A00" stroke="#FF8A00" stroke-width="2" mask="url(#path-1-inside-1_5_67)"/>
</svg>
