<svg width="376" height="265" viewBox="0 0 376 265" fill="none" xmlns="http://www.w3.org/2000/svg">
<mask id="path-1-inside-1_68_2" fill="white">
<path d="M176.22 23.7696C176.22 17.4655 173.52 11.4196 168.714 6.96195C163.908 2.50429 157.39 0 150.594 0C143.797 0 137.279 2.50429 132.473 6.96195C127.667 11.4196 124.967 17.4655 124.967 23.7696C124.967 30.0737 127.667 36.1196 132.473 40.5772C137.279 45.0349 143.797 47.5392 150.594 47.5392C157.39 47.5392 163.908 45.0349 168.714 40.5772C173.52 36.1196 176.22 30.0737 176.22 23.7696V23.7696ZM134.286 23.7696C134.286 21.7832 134.708 19.8163 135.527 17.9811C136.347 16.1459 137.548 14.4784 139.062 13.0738C140.577 11.6692 142.374 10.5551 144.353 9.7949C146.331 9.03474 148.452 8.64349 150.594 8.64349C152.735 8.64349 154.856 9.03474 156.834 9.7949C158.813 10.5551 160.611 11.6692 162.125 13.0738C163.639 14.4784 164.84 16.1459 165.66 17.9811C166.479 19.8163 166.901 21.7832 166.901 23.7696C166.901 27.7813 165.183 31.6287 162.125 34.4654C159.067 37.3021 154.919 38.8957 150.594 38.8957C146.268 38.8957 142.121 37.3021 139.062 34.4654C136.004 31.6287 134.286 27.7813 134.286 23.7696V23.7696ZM117.978 56.1827H156.958C155.43 58.8622 154.293 61.7664 153.622 64.8262H117.978C116.742 64.8262 115.557 65.2815 114.683 66.092C113.81 66.9025 113.319 68.0017 113.319 69.1479V73.4697C113.319 84.3605 123.56 96.0637 142.169 98.7951C139.169 100.697 136.671 103.229 134.892 106.177C115.229 101.241 104 87.1869 104 73.4697V69.1479C104 65.7093 105.473 62.4116 108.094 59.9801C110.715 57.5487 114.271 56.1827 117.978 56.1827V56.1827ZM168.103 56.1827C172.8 50.9102 179.91 47.5392 187.868 47.5392C193.449 47.5302 198.88 49.2148 203.332 52.336C207.784 55.4573 211.013 59.8438 212.526 64.8262C213.874 69.2732 213.798 73.9883 212.307 78.3959C210.815 82.8036 207.973 86.7132 204.126 89.6478C200.28 92.5824 195.596 94.415 190.645 94.9219C185.695 95.4288 180.692 94.5882 176.248 92.5026C172.826 90.8873 169.84 88.5796 167.509 85.7498C165.178 82.92 163.562 79.6407 162.781 76.1539C162 72.6672 162.074 69.0623 162.997 65.6055C163.919 62.1488 165.668 58.9285 168.113 56.1827H168.103ZM173.136 64.8262C172.218 66.6219 171.69 68.5677 171.583 70.5524C171.476 72.5372 171.791 74.5222 172.511 76.3939C173.231 78.2656 174.342 79.9874 175.779 81.4611C177.216 82.9348 178.953 84.1315 180.889 84.9828C182.825 85.8341 184.922 86.3234 187.062 86.4227C189.202 86.522 191.342 86.2295 193.36 85.5617C195.378 84.8939 197.234 83.864 198.823 82.5308C200.412 81.1975 201.702 79.5871 202.62 77.7914C204.474 74.1637 204.698 70.0016 203.243 66.2207C201.788 62.4398 198.773 59.3498 194.862 57.6305C190.951 55.9112 186.464 55.7034 182.387 57.0529C178.311 58.4023 174.98 61.1985 173.126 64.8262H173.136ZM240.845 106.177C239.07 103.228 236.578 100.703 233.567 98.8037C252.167 96.0637 262.418 84.3518 262.418 73.4697V69.1479C262.418 68.0017 261.927 66.9025 261.053 66.092C260.18 65.2815 258.994 64.8262 257.759 64.8262H222.115C221.456 61.8125 220.336 58.9018 218.788 56.1827H257.759C261.466 56.1827 265.021 57.5487 267.643 59.9801C270.264 62.4116 271.737 65.7093 271.737 69.1479V73.4697C271.737 87.1869 260.498 101.233 240.845 106.177ZM229.681 106.929C227.138 104.858 223.868 103.718 220.484 103.722H155.253C153.416 103.717 151.596 104.05 149.898 104.7C148.2 105.349 146.657 106.304 145.358 107.509C144.059 108.714 143.03 110.145 142.329 111.72C141.628 113.295 141.27 114.983 141.275 116.687V121.009C141.275 138.045 158.608 155.583 187.868 155.583C217.129 155.583 234.462 138.045 234.462 121.009V116.687C234.462 112.798 232.617 109.306 229.681 106.92V106.929ZM150.594 116.687C150.594 115.541 151.084 114.442 151.958 113.631C152.832 112.821 154.017 112.365 155.253 112.365H220.484C221.72 112.365 222.905 112.821 223.779 113.631C224.652 114.442 225.143 115.541 225.143 116.687V121.009C225.143 133.438 211.799 146.939 187.868 146.939C163.938 146.939 150.594 133.438 150.594 121.009V116.687ZM225.143 0C231.94 0 238.458 2.50429 243.264 6.96195C248.07 11.4196 250.77 17.4655 250.77 23.7696C250.77 30.0737 248.07 36.1196 243.264 40.5772C238.458 45.0349 231.94 47.5392 225.143 47.5392C218.347 47.5392 211.828 45.0349 207.023 40.5772C202.217 36.1196 199.517 30.0737 199.517 23.7696C199.517 17.4655 202.217 11.4196 207.023 6.96195C211.828 2.50429 218.347 0 225.143 0V0ZM225.143 8.64349C220.818 8.64349 216.67 10.2371 213.612 13.0738C210.554 15.9105 208.835 19.7579 208.835 23.7696C208.835 27.7813 210.554 31.6287 213.612 34.4654C216.67 37.3021 220.818 38.8957 225.143 38.8957C229.468 38.8957 233.616 37.3021 236.675 34.4654C239.733 31.6287 241.451 27.7813 241.451 23.7696C241.451 19.7579 239.733 15.9105 236.675 13.0738C233.616 10.2371 229.468 8.64349 225.143 8.64349V8.64349Z"/>
</mask>
<path d="M176.22 23.7696C176.22 17.4655 173.52 11.4196 168.714 6.96195C163.908 2.50429 157.39 0 150.594 0C143.797 0 137.279 2.50429 132.473 6.96195C127.667 11.4196 124.967 17.4655 124.967 23.7696C124.967 30.0737 127.667 36.1196 132.473 40.5772C137.279 45.0349 143.797 47.5392 150.594 47.5392C157.39 47.5392 163.908 45.0349 168.714 40.5772C173.52 36.1196 176.22 30.0737 176.22 23.7696V23.7696ZM134.286 23.7696C134.286 21.7832 134.708 19.8163 135.527 17.9811C136.347 16.1459 137.548 14.4784 139.062 13.0738C140.577 11.6692 142.374 10.5551 144.353 9.7949C146.331 9.03474 148.452 8.64349 150.594 8.64349C152.735 8.64349 154.856 9.03474 156.834 9.7949C158.813 10.5551 160.611 11.6692 162.125 13.0738C163.639 14.4784 164.84 16.1459 165.66 17.9811C166.479 19.8163 166.901 21.7832 166.901 23.7696C166.901 27.7813 165.183 31.6287 162.125 34.4654C159.067 37.3021 154.919 38.8957 150.594 38.8957C146.268 38.8957 142.121 37.3021 139.062 34.4654C136.004 31.6287 134.286 27.7813 134.286 23.7696V23.7696ZM117.978 56.1827H156.958C155.43 58.8622 154.293 61.7664 153.622 64.8262H117.978C116.742 64.8262 115.557 65.2815 114.683 66.092C113.81 66.9025 113.319 68.0017 113.319 69.1479V73.4697C113.319 84.3605 123.56 96.0637 142.169 98.7951C139.169 100.697 136.671 103.229 134.892 106.177C115.229 101.241 104 87.1869 104 73.4697V69.1479C104 65.7093 105.473 62.4116 108.094 59.9801C110.715 57.5487 114.271 56.1827 117.978 56.1827V56.1827ZM168.103 56.1827C172.8 50.9102 179.91 47.5392 187.868 47.5392C193.449 47.5302 198.88 49.2148 203.332 52.336C207.784 55.4573 211.013 59.8438 212.526 64.8262C213.874 69.2732 213.798 73.9883 212.307 78.3959C210.815 82.8036 207.973 86.7132 204.126 89.6478C200.28 92.5824 195.596 94.415 190.645 94.9219C185.695 95.4288 180.692 94.5882 176.248 92.5026C172.826 90.8873 169.84 88.5796 167.509 85.7498C165.178 82.92 163.562 79.6407 162.781 76.1539C162 72.6672 162.074 69.0623 162.997 65.6055C163.919 62.1488 165.668 58.9285 168.113 56.1827H168.103ZM173.136 64.8262C172.218 66.6219 171.69 68.5677 171.583 70.5524C171.476 72.5372 171.791 74.5222 172.511 76.3939C173.231 78.2656 174.342 79.9874 175.779 81.4611C177.216 82.9348 178.953 84.1315 180.889 84.9828C182.825 85.8341 184.922 86.3234 187.062 86.4227C189.202 86.522 191.342 86.2295 193.36 85.5617C195.378 84.8939 197.234 83.864 198.823 82.5308C200.412 81.1975 201.702 79.5871 202.62 77.7914C204.474 74.1637 204.698 70.0016 203.243 66.2207C201.788 62.4398 198.773 59.3498 194.862 57.6305C190.951 55.9112 186.464 55.7034 182.387 57.0529C178.311 58.4023 174.98 61.1985 173.126 64.8262H173.136ZM240.845 106.177C239.07 103.228 236.578 100.703 233.567 98.8037C252.167 96.0637 262.418 84.3518 262.418 73.4697V69.1479C262.418 68.0017 261.927 66.9025 261.053 66.092C260.18 65.2815 258.994 64.8262 257.759 64.8262H222.115C221.456 61.8125 220.336 58.9018 218.788 56.1827H257.759C261.466 56.1827 265.021 57.5487 267.643 59.9801C270.264 62.4116 271.737 65.7093 271.737 69.1479V73.4697C271.737 87.1869 260.498 101.233 240.845 106.177ZM229.681 106.929C227.138 104.858 223.868 103.718 220.484 103.722H155.253C153.416 103.717 151.596 104.05 149.898 104.7C148.2 105.349 146.657 106.304 145.358 107.509C144.059 108.714 143.03 110.145 142.329 111.72C141.628 113.295 141.27 114.983 141.275 116.687V121.009C141.275 138.045 158.608 155.583 187.868 155.583C217.129 155.583 234.462 138.045 234.462 121.009V116.687C234.462 112.798 232.617 109.306 229.681 106.92V106.929ZM150.594 116.687C150.594 115.541 151.084 114.442 151.958 113.631C152.832 112.821 154.017 112.365 155.253 112.365H220.484C221.72 112.365 222.905 112.821 223.779 113.631C224.652 114.442 225.143 115.541 225.143 116.687V121.009C225.143 133.438 211.799 146.939 187.868 146.939C163.938 146.939 150.594 133.438 150.594 121.009V116.687ZM225.143 0C231.94 0 238.458 2.50429 243.264 6.96195C248.07 11.4196 250.77 17.4655 250.77 23.7696C250.77 30.0737 248.07 36.1196 243.264 40.5772C238.458 45.0349 231.94 47.5392 225.143 47.5392C218.347 47.5392 211.828 45.0349 207.023 40.5772C202.217 36.1196 199.517 30.0737 199.517 23.7696C199.517 17.4655 202.217 11.4196 207.023 6.96195C211.828 2.50429 218.347 0 225.143 0V0ZM225.143 8.64349C220.818 8.64349 216.67 10.2371 213.612 13.0738C210.554 15.9105 208.835 19.7579 208.835 23.7696C208.835 27.7813 210.554 31.6287 213.612 34.4654C216.67 37.3021 220.818 38.8957 225.143 38.8957C229.468 38.8957 233.616 37.3021 236.675 34.4654C239.733 31.6287 241.451 27.7813 241.451 23.7696C241.451 19.7579 239.733 15.9105 236.675 13.0738C233.616 10.2371 229.468 8.64349 225.143 8.64349V8.64349Z" fill="#FF8A00" stroke="#FF8A00" stroke-width="2" mask="url(#path-1-inside-1_68_2)"/>
<path d="M30.7688 244.56C26.8754 244.56 23.3554 243.893 20.2088 242.56C17.1154 241.227 14.6621 239.307 12.8488 236.8C11.0354 234.293 10.1021 231.333 10.0488 227.92H22.0488C22.2088 230.213 23.0088 232.027 24.4488 233.36C25.9421 234.693 27.9688 235.36 30.5288 235.36C33.1421 235.36 35.1954 234.747 36.6888 233.52C38.1821 232.24 38.9288 230.587 38.9288 228.56C38.9288 226.907 38.4221 225.547 37.4088 224.48C36.3954 223.413 35.1154 222.587 33.5688 222C32.0754 221.36 29.9954 220.667 27.3288 219.92C23.7021 218.853 20.7421 217.813 18.4488 216.8C16.2088 215.733 14.2621 214.16 12.6088 212.08C11.0088 209.947 10.2088 207.12 10.2088 203.6C10.2088 200.293 11.0354 197.413 12.6888 194.96C14.3421 192.507 16.6621 190.64 19.6488 189.36C22.6354 188.027 26.0488 187.36 29.8888 187.36C35.6488 187.36 40.3154 188.773 43.8888 191.6C47.5154 194.373 49.5154 198.267 49.8888 203.28H37.5688C37.4621 201.36 36.6354 199.787 35.0888 198.56C33.5954 197.28 31.5954 196.64 29.0888 196.64C26.9021 196.64 25.1421 197.2 23.8088 198.32C22.5288 199.44 21.8888 201.067 21.8888 203.2C21.8888 204.693 22.3688 205.947 23.3288 206.96C24.3421 207.92 25.5688 208.72 27.0088 209.36C28.5021 209.947 30.5821 210.64 33.2488 211.44C36.8754 212.507 39.8354 213.573 42.1288 214.64C44.4221 215.707 46.3954 217.307 48.0488 219.44C49.7021 221.573 50.5288 224.373 50.5288 227.84C50.5288 230.827 49.7554 233.6 48.2087 236.16C46.6621 238.72 44.3954 240.773 41.4088 242.32C38.4221 243.813 34.8754 244.56 30.7688 244.56ZM85.1988 199.04C88.5588 199.04 91.5454 199.787 94.1588 201.28C96.7721 202.72 98.7988 204.88 100.239 207.76C101.732 210.587 102.479 214 102.479 218V244H91.2788V219.52C91.2788 216 90.3988 213.307 88.6388 211.44C86.8788 209.52 84.4788 208.56 81.4388 208.56C78.3454 208.56 75.8921 209.52 74.0788 211.44C72.3188 213.307 71.4388 216 71.4388 219.52V244H60.2388V184.8H71.4388V205.2C72.8788 203.28 74.7988 201.787 77.1988 200.72C79.5988 199.6 82.2654 199.04 85.1988 199.04ZM110.249 221.68C110.249 217.2 111.129 213.227 112.889 209.76C114.703 206.293 117.129 203.627 120.169 201.76C123.263 199.893 126.703 198.96 130.489 198.96C133.796 198.96 136.676 199.627 139.129 200.96C141.636 202.293 143.636 203.973 145.129 206V199.68H156.409V244H145.129V237.52C143.689 239.6 141.689 241.333 139.129 242.72C136.623 244.053 133.716 244.72 130.409 244.72C126.676 244.72 123.263 243.76 120.169 241.84C117.129 239.92 114.703 237.227 112.889 233.76C111.129 230.24 110.249 226.213 110.249 221.68ZM145.129 221.84C145.129 219.12 144.596 216.8 143.529 214.88C142.463 212.907 141.023 211.413 139.209 210.4C137.396 209.333 135.449 208.8 133.369 208.8C131.289 208.8 129.369 209.307 127.609 210.32C125.849 211.333 124.409 212.827 123.289 214.8C122.223 216.72 121.689 219.013 121.689 221.68C121.689 224.347 122.223 226.693 123.289 228.72C124.409 230.693 125.849 232.213 127.609 233.28C129.423 234.347 131.343 234.88 133.369 234.88C135.449 234.88 137.396 234.373 139.209 233.36C141.023 232.293 142.463 230.8 143.529 228.88C144.596 226.907 145.129 224.56 145.129 221.84ZM178.548 206.56C179.988 204.213 181.855 202.373 184.148 201.04C186.495 199.707 189.161 199.04 192.148 199.04V210.8H189.188C185.668 210.8 183.001 211.627 181.188 213.28C179.428 214.933 178.548 217.813 178.548 221.92V244H167.348V199.68H178.548V206.56ZM240.892 220.88C240.892 222.48 240.785 223.92 240.572 225.2H208.172C208.439 228.4 209.559 230.907 211.532 232.72C213.505 234.533 215.932 235.44 218.812 235.44C222.972 235.44 225.932 233.653 227.692 230.08H239.772C238.492 234.347 236.039 237.867 232.412 240.64C228.785 243.36 224.332 244.72 219.052 244.72C214.785 244.72 210.945 243.787 207.532 241.92C204.172 240 201.532 237.307 199.612 233.84C197.745 230.373 196.812 226.373 196.812 221.84C196.812 217.253 197.745 213.227 199.612 209.76C201.479 206.293 204.092 203.627 207.452 201.76C210.812 199.893 214.679 198.96 219.052 198.96C223.265 198.96 227.025 199.867 230.332 201.68C233.692 203.493 236.279 206.08 238.092 209.44C239.959 212.747 240.892 216.56 240.892 220.88ZM229.292 217.68C229.239 214.8 228.199 212.507 226.172 210.8C224.145 209.04 221.665 208.16 218.732 208.16C215.959 208.16 213.612 209.013 211.692 210.72C209.825 212.373 208.679 214.693 208.252 217.68H229.292ZM260.267 197.2V211.2H279.067V220.08H260.267V234.88H281.467V244H249.067V188.08H281.467V197.2H260.267ZM304.685 208.88V230.32C304.685 231.813 305.032 232.907 305.725 233.6C306.472 234.24 307.698 234.56 309.405 234.56H314.605V244H307.565C298.125 244 293.405 239.413 293.405 230.24V208.88H288.125V199.68H293.405V188.72H304.685V199.68H314.605V208.88H304.685ZM347.621 199.04C350.981 199.04 353.967 199.787 356.581 201.28C359.194 202.72 361.221 204.88 362.661 207.76C364.154 210.587 364.901 214 364.901 218V244H353.701V219.52C353.701 216 352.821 213.307 351.061 211.44C349.301 209.52 346.901 208.56 343.861 208.56C340.767 208.56 338.314 209.52 336.501 211.44C334.741 213.307 333.861 216 333.861 219.52V244H322.661V184.8H333.861V205.2C335.301 203.28 337.221 201.787 339.621 200.72C342.021 199.6 344.687 199.04 347.621 199.04Z" fill="#FF8A00"/>
</svg>
