<svg width="221" height="53" viewBox="0 0 221 53" fill="none" xmlns="http://www.w3.org/2000/svg">
<path d="M71.85 39.245C70.1467 39.245 68.6067 38.9533 67.23 38.37C65.8767 37.7867 64.8033 36.9467 64.01 35.85C63.2167 34.7533 62.8083 33.4583 62.785 31.965H68.035C68.105 32.9683 68.455 33.7617 69.085 34.345C69.7383 34.9283 70.625 35.22 71.745 35.22C72.8883 35.22 73.7867 34.9517 74.44 34.415C75.0933 33.855 75.42 33.1317 75.42 32.245C75.42 31.5217 75.1983 30.9267 74.755 30.46C74.3117 29.9933 73.7517 29.6317 73.075 29.375C72.4217 29.095 71.5117 28.7917 70.345 28.465C68.7583 27.9983 67.4633 27.5433 66.46 27.1C65.48 26.6333 64.6283 25.945 63.905 25.035C63.205 24.1017 62.855 22.865 62.855 21.325C62.855 19.8783 63.2167 18.6183 63.94 17.545C64.6633 16.4717 65.6783 15.655 66.985 15.095C68.2917 14.5117 69.785 14.22 71.465 14.22C73.985 14.22 76.0267 14.8383 77.59 16.075C79.1767 17.2883 80.0517 18.9917 80.215 21.185H74.825C74.7783 20.345 74.4167 19.6567 73.74 19.12C73.0867 18.56 72.2117 18.28 71.115 18.28C70.1583 18.28 69.3883 18.525 68.805 19.015C68.245 19.505 67.965 20.2167 67.965 21.15C67.965 21.8033 68.175 22.3517 68.595 22.795C69.0383 23.215 69.575 23.565 70.205 23.845C70.8583 24.1017 71.7683 24.405 72.935 24.755C74.5217 25.2217 75.8167 25.6883 76.82 26.155C77.8233 26.6217 78.6867 27.3217 79.41 28.255C80.1333 29.1883 80.495 30.4133 80.495 31.93C80.495 33.2367 80.1567 34.45 79.48 35.57C78.8033 36.69 77.8117 37.5883 76.505 38.265C75.1983 38.9183 73.6467 39.245 71.85 39.245ZM95.6631 19.33C97.1331 19.33 98.4398 19.6567 99.5831 20.31C100.726 20.94 101.613 21.885 102.243 23.145C102.896 24.3817 103.223 25.875 103.223 27.625V39H98.3231V28.29C98.3231 26.75 97.9381 25.5717 97.1681 24.755C96.3981 23.915 95.3481 23.495 94.0181 23.495C92.6648 23.495 91.5915 23.915 90.7981 24.755C90.0281 25.5717 89.6431 26.75 89.6431 28.29V39H84.7431V13.1H89.6431V22.025C90.2731 21.185 91.1131 20.5317 92.1631 20.065C93.2131 19.575 94.3798 19.33 95.6631 19.33ZM106.623 29.235C106.623 27.275 107.008 25.5367 107.778 24.02C108.571 22.5033 109.633 21.3367 110.963 20.52C112.316 19.7033 113.821 19.295 115.478 19.295C116.924 19.295 118.184 19.5867 119.258 20.17C120.354 20.7533 121.229 21.4883 121.883 22.375V19.61H126.818V39H121.883V36.165C121.253 37.075 120.378 37.8333 119.258 38.44C118.161 39.0233 116.889 39.315 115.443 39.315C113.809 39.315 112.316 38.895 110.963 38.055C109.633 37.215 108.571 36.0367 107.778 34.52C107.008 32.98 106.623 31.2183 106.623 29.235ZM121.883 29.305C121.883 28.115 121.649 27.1 121.183 26.26C120.716 25.3967 120.086 24.7433 119.293 24.3C118.499 23.8333 117.648 23.6 116.738 23.6C115.828 23.6 114.988 23.8217 114.218 24.265C113.448 24.7083 112.818 25.3617 112.328 26.225C111.861 27.065 111.628 28.0683 111.628 29.235C111.628 30.4017 111.861 31.4283 112.328 32.315C112.818 33.1783 113.448 33.8433 114.218 34.31C115.011 34.7767 115.851 35.01 116.738 35.01C117.648 35.01 118.499 34.7883 119.293 34.345C120.086 33.8783 120.716 33.225 121.183 32.385C121.649 31.5217 121.883 30.495 121.883 29.305ZM136.503 22.62C137.133 21.5933 137.95 20.7883 138.953 20.205C139.98 19.6217 141.147 19.33 142.453 19.33V24.475H141.158C139.618 24.475 138.452 24.8367 137.658 25.56C136.888 26.2833 136.503 27.5433 136.503 29.34V39H131.603V19.61H136.503V22.62ZM163.779 28.885C163.779 29.585 163.732 30.215 163.639 30.775H149.464C149.581 32.175 150.071 33.2717 150.934 34.065C151.797 34.8583 152.859 35.255 154.119 35.255C155.939 35.255 157.234 34.4733 158.004 32.91H163.289C162.729 34.7767 161.656 36.3167 160.069 37.53C158.482 38.72 156.534 39.315 154.224 39.315C152.357 39.315 150.677 38.9067 149.184 38.09C147.714 37.25 146.559 36.0717 145.719 34.555C144.902 33.0383 144.494 31.2883 144.494 29.305C144.494 27.2983 144.902 25.5367 145.719 24.02C146.536 22.5033 147.679 21.3367 149.149 20.52C150.619 19.7033 152.311 19.295 154.224 19.295C156.067 19.295 157.712 19.6917 159.159 20.485C160.629 21.2783 161.761 22.41 162.554 23.88C163.371 25.3267 163.779 26.995 163.779 28.885ZM158.704 27.485C158.681 26.225 158.226 25.2217 157.339 24.475C156.452 23.705 155.367 23.32 154.084 23.32C152.871 23.32 151.844 23.6933 151.004 24.44C150.187 25.1633 149.686 26.1783 149.499 27.485H158.704ZM172.255 18.525V24.65H180.48V28.535H172.255V35.01H181.53V39H167.355V14.535H181.53V18.525H172.255ZM191.688 23.635V33.015C191.688 33.6683 191.84 34.1467 192.143 34.45C192.47 34.73 193.007 34.87 193.753 34.87H196.028V39H192.948C188.818 39 186.753 36.9933 186.753 32.98V23.635H184.443V19.61H186.753V14.815H191.688V19.61H196.028V23.635H191.688ZM210.473 19.33C211.943 19.33 213.249 19.6567 214.393 20.31C215.536 20.94 216.423 21.885 217.053 23.145C217.706 24.3817 218.033 25.875 218.033 27.625V39H213.133V28.29C213.133 26.75 212.748 25.5717 211.978 24.755C211.208 23.915 210.158 23.495 208.828 23.495C207.474 23.495 206.401 23.915 205.608 24.755C204.838 25.5717 204.453 26.75 204.453 28.29V39H199.553V13.1H204.453V22.025C205.083 21.185 205.923 20.5317 206.973 20.065C208.023 19.575 209.189 19.33 210.473 19.33Z" fill="#FF8A00"/>
<mask id="path-2-inside-1_20_409" fill="white">
<path d="M20.6667 7.48611C20.6667 5.50067 19.8941 3.59655 18.5188 2.19263C17.1435 0.788713 15.2783 0 13.3333 0C11.3884 0 9.52315 0.788713 8.14788 2.19263C6.77262 3.59655 6 5.50067 6 7.48611C6 9.47155 6.77262 11.3757 8.14788 12.7796C9.52315 14.1835 11.3884 14.9722 13.3333 14.9722C15.2783 14.9722 17.1435 14.1835 18.5188 12.7796C19.8941 11.3757 20.6667 9.47155 20.6667 7.48611ZM8.66667 7.48611C8.66667 6.86051 8.78737 6.24103 9.0219 5.66305C9.25642 5.08507 9.60016 4.5599 10.0335 4.11753C10.4668 3.67516 10.9813 3.32426 11.5475 3.08485C12.1137 2.84544 12.7205 2.72222 13.3333 2.72222C13.9462 2.72222 14.553 2.84544 15.1192 3.08485C15.6854 3.32426 16.1998 3.67516 16.6332 4.11753C17.0665 4.5599 17.4102 5.08507 17.6448 5.66305C17.8793 6.24103 18 6.86051 18 7.48611C18 8.74957 17.5083 9.96129 16.6332 10.8547C15.758 11.7481 14.571 12.25 13.3333 12.25C12.0957 12.25 10.9087 11.7481 10.0335 10.8547C9.15833 9.96129 8.66667 8.74957 8.66667 7.48611ZM4 17.6944H15.1547C14.7173 18.5383 14.392 19.453 14.2 20.4167H4C3.64638 20.4167 3.30724 20.5601 3.05719 20.8153C2.80714 21.0706 2.66667 21.4168 2.66667 21.7778V23.1389C2.66667 26.5689 5.59733 30.2548 10.9227 31.115C10.064 31.7139 9.34933 32.5115 8.84 33.4398C3.21333 31.8854 0 27.4591 0 23.1389V21.7778C0 20.6948 0.421427 19.6562 1.17157 18.8904C1.92172 18.1247 2.93913 17.6944 4 17.6944ZM18.344 17.6944C19.688 16.0339 21.7227 14.9722 24 14.9722C25.597 14.9694 27.151 15.4999 28.425 16.483C29.699 17.466 30.623 18.8475 31.056 20.4167C31.442 21.8172 31.4202 23.3022 30.9934 24.6904C30.5666 26.0786 29.7532 27.3099 28.6524 28.2341C27.5517 29.1583 26.2112 29.7355 24.7946 29.8952C23.3779 30.0548 21.9464 29.7901 20.6747 29.1332C19.6955 28.6245 18.8408 27.8977 18.1738 27.0065C17.5068 26.1152 17.0444 25.0824 16.8209 23.9843C16.5975 22.8862 16.6185 21.7508 16.8826 20.6621C17.1467 19.5734 17.647 18.5592 18.3467 17.6944H18.344ZM19.784 20.4167C19.5214 20.9822 19.3704 21.595 19.3398 22.2201C19.3091 22.8452 19.3994 23.4704 19.6054 24.0599C19.8114 24.6493 20.1292 25.1916 20.5405 25.6558C20.9518 26.1199 21.4487 26.4968 22.0027 26.7649C22.5567 27.033 23.157 27.1871 23.7693 27.2184C24.3817 27.2497 24.994 27.1575 25.5715 26.9472C26.149 26.7369 26.6802 26.4125 27.1348 25.9926C27.5895 25.5727 27.9587 25.0655 28.2213 24.5C28.7518 23.3575 28.8159 22.0466 28.3995 20.8559C27.9832 19.6651 27.1205 18.6919 26.0013 18.1504C24.8821 17.6089 23.598 17.5435 22.4316 17.9685C21.2651 18.3935 20.3118 19.2741 19.7813 20.4167H19.784ZM39.16 33.4398C38.6521 32.511 37.939 31.7159 37.0773 31.1177C42.4 30.2548 45.3333 26.5662 45.3333 23.1389V21.7778C45.3333 21.4168 45.1929 21.0706 44.9428 20.8153C44.6928 20.5601 44.3536 20.4167 44 20.4167H33.8C33.6116 19.4675 33.291 18.5508 32.848 17.6944H44C45.0609 17.6944 46.0783 18.1247 46.8284 18.8904C47.5786 19.6562 48 20.6948 48 21.7778V23.1389C48 27.4591 44.784 31.8827 39.16 33.4398ZM35.9653 33.6766C35.2375 33.0244 34.3018 32.6653 33.3333 32.6667H14.6667C14.141 32.6652 13.6202 32.7699 13.1343 32.9746C12.6483 33.1793 12.2068 33.48 11.8351 33.8594C11.4634 34.2389 11.1688 34.6896 10.9683 35.1857C10.7678 35.6817 10.6653 36.2134 10.6667 36.75V38.1111C10.6667 43.4766 15.6267 49 24 49C32.3733 49 37.3333 43.4766 37.3333 38.1111V36.75C37.3333 35.525 36.8053 34.4252 35.9653 33.6739V33.6766ZM13.3333 36.75C13.3333 36.389 13.4738 36.0428 13.7239 35.7875C13.9739 35.5323 14.313 35.3889 14.6667 35.3889H33.3333C33.687 35.3889 34.0261 35.5323 34.2761 35.7875C34.5262 36.0428 34.6667 36.389 34.6667 36.75V38.1111C34.6667 42.0257 30.848 46.2778 24 46.2778C17.152 46.2778 13.3333 42.0257 13.3333 38.1111V36.75ZM34.6667 0C36.6116 0 38.4769 0.788713 39.8521 2.19263C41.2274 3.59655 42 5.50067 42 7.48611C42 9.47155 41.2274 11.3757 39.8521 12.7796C38.4769 14.1835 36.6116 14.9722 34.6667 14.9722C32.7217 14.9722 30.8565 14.1835 29.4812 12.7796C28.106 11.3757 27.3333 9.47155 27.3333 7.48611C27.3333 5.50067 28.106 3.59655 29.4812 2.19263C30.8565 0.788713 32.7217 0 34.6667 0ZM34.6667 2.72222C33.429 2.72222 32.242 3.22413 31.3668 4.11753C30.4917 5.01094 30 6.22265 30 7.48611C30 8.74957 30.4917 9.96129 31.3668 10.8547C32.242 11.7481 33.429 12.25 34.6667 12.25C35.9043 12.25 37.0913 11.7481 37.9665 10.8547C38.8417 9.96129 39.3333 8.74957 39.3333 7.48611C39.3333 6.22265 38.8417 5.01094 37.9665 4.11753C37.0913 3.22413 35.9043 2.72222 34.6667 2.72222Z"/>
</mask>
<path d="M20.6667 7.48611C20.6667 5.50067 19.8941 3.59655 18.5188 2.19263C17.1435 0.788713 15.2783 0 13.3333 0C11.3884 0 9.52315 0.788713 8.14788 2.19263C6.77262 3.59655 6 5.50067 6 7.48611C6 9.47155 6.77262 11.3757 8.14788 12.7796C9.52315 14.1835 11.3884 14.9722 13.3333 14.9722C15.2783 14.9722 17.1435 14.1835 18.5188 12.7796C19.8941 11.3757 20.6667 9.47155 20.6667 7.48611ZM8.66667 7.48611C8.66667 6.86051 8.78737 6.24103 9.0219 5.66305C9.25642 5.08507 9.60016 4.5599 10.0335 4.11753C10.4668 3.67516 10.9813 3.32426 11.5475 3.08485C12.1137 2.84544 12.7205 2.72222 13.3333 2.72222C13.9462 2.72222 14.553 2.84544 15.1192 3.08485C15.6854 3.32426 16.1998 3.67516 16.6332 4.11753C17.0665 4.5599 17.4102 5.08507 17.6448 5.66305C17.8793 6.24103 18 6.86051 18 7.48611C18 8.74957 17.5083 9.96129 16.6332 10.8547C15.758 11.7481 14.571 12.25 13.3333 12.25C12.0957 12.25 10.9087 11.7481 10.0335 10.8547C9.15833 9.96129 8.66667 8.74957 8.66667 7.48611ZM4 17.6944H15.1547C14.7173 18.5383 14.392 19.453 14.2 20.4167H4C3.64638 20.4167 3.30724 20.5601 3.05719 20.8153C2.80714 21.0706 2.66667 21.4168 2.66667 21.7778V23.1389C2.66667 26.5689 5.59733 30.2548 10.9227 31.115C10.064 31.7139 9.34933 32.5115 8.84 33.4398C3.21333 31.8854 0 27.4591 0 23.1389V21.7778C0 20.6948 0.421427 19.6562 1.17157 18.8904C1.92172 18.1247 2.93913 17.6944 4 17.6944ZM18.344 17.6944C19.688 16.0339 21.7227 14.9722 24 14.9722C25.597 14.9694 27.151 15.4999 28.425 16.483C29.699 17.466 30.623 18.8475 31.056 20.4167C31.442 21.8172 31.4202 23.3022 30.9934 24.6904C30.5666 26.0786 29.7532 27.3099 28.6524 28.2341C27.5517 29.1583 26.2112 29.7355 24.7946 29.8952C23.3779 30.0548 21.9464 29.7901 20.6747 29.1332C19.6955 28.6245 18.8408 27.8977 18.1738 27.0065C17.5068 26.1152 17.0444 25.0824 16.8209 23.9843C16.5975 22.8862 16.6185 21.7508 16.8826 20.6621C17.1467 19.5734 17.647 18.5592 18.3467 17.6944H18.344ZM19.784 20.4167C19.5214 20.9822 19.3704 21.595 19.3398 22.2201C19.3091 22.8452 19.3994 23.4704 19.6054 24.0599C19.8114 24.6493 20.1292 25.1916 20.5405 25.6558C20.9518 26.1199 21.4487 26.4968 22.0027 26.7649C22.5567 27.033 23.157 27.1871 23.7693 27.2184C24.3817 27.2497 24.994 27.1575 25.5715 26.9472C26.149 26.7369 26.6802 26.4125 27.1348 25.9926C27.5895 25.5727 27.9587 25.0655 28.2213 24.5C28.7518 23.3575 28.8159 22.0466 28.3995 20.8559C27.9832 19.6651 27.1205 18.6919 26.0013 18.1504C24.8821 17.6089 23.598 17.5435 22.4316 17.9685C21.2651 18.3935 20.3118 19.2741 19.7813 20.4167H19.784ZM39.16 33.4398C38.6521 32.511 37.939 31.7159 37.0773 31.1177C42.4 30.2548 45.3333 26.5662 45.3333 23.1389V21.7778C45.3333 21.4168 45.1929 21.0706 44.9428 20.8153C44.6928 20.5601 44.3536 20.4167 44 20.4167H33.8C33.6116 19.4675 33.291 18.5508 32.848 17.6944H44C45.0609 17.6944 46.0783 18.1247 46.8284 18.8904C47.5786 19.6562 48 20.6948 48 21.7778V23.1389C48 27.4591 44.784 31.8827 39.16 33.4398ZM35.9653 33.6766C35.2375 33.0244 34.3018 32.6653 33.3333 32.6667H14.6667C14.141 32.6652 13.6202 32.7699 13.1343 32.9746C12.6483 33.1793 12.2068 33.48 11.8351 33.8594C11.4634 34.2389 11.1688 34.6896 10.9683 35.1857C10.7678 35.6817 10.6653 36.2134 10.6667 36.75V38.1111C10.6667 43.4766 15.6267 49 24 49C32.3733 49 37.3333 43.4766 37.3333 38.1111V36.75C37.3333 35.525 36.8053 34.4252 35.9653 33.6739V33.6766ZM13.3333 36.75C13.3333 36.389 13.4738 36.0428 13.7239 35.7875C13.9739 35.5323 14.313 35.3889 14.6667 35.3889H33.3333C33.687 35.3889 34.0261 35.5323 34.2761 35.7875C34.5262 36.0428 34.6667 36.389 34.6667 36.75V38.1111C34.6667 42.0257 30.848 46.2778 24 46.2778C17.152 46.2778 13.3333 42.0257 13.3333 38.1111V36.75ZM34.6667 0C36.6116 0 38.4769 0.788713 39.8521 2.19263C41.2274 3.59655 42 5.50067 42 7.48611C42 9.47155 41.2274 11.3757 39.8521 12.7796C38.4769 14.1835 36.6116 14.9722 34.6667 14.9722C32.7217 14.9722 30.8565 14.1835 29.4812 12.7796C28.106 11.3757 27.3333 9.47155 27.3333 7.48611C27.3333 5.50067 28.106 3.59655 29.4812 2.19263C30.8565 0.788713 32.7217 0 34.6667 0ZM34.6667 2.72222C33.429 2.72222 32.242 3.22413 31.3668 4.11753C30.4917 5.01094 30 6.22265 30 7.48611C30 8.74957 30.4917 9.96129 31.3668 10.8547C32.242 11.7481 33.429 12.25 34.6667 12.25C35.9043 12.25 37.0913 11.7481 37.9665 10.8547C38.8417 9.96129 39.3333 8.74957 39.3333 7.48611C39.3333 6.22265 38.8417 5.01094 37.9665 4.11753C37.0913 3.22413 35.9043 2.72222 34.6667 2.72222Z" fill="#FF8A00" stroke="#FF8A00" stroke-width="2" mask="url(#path-2-inside-1_20_409)"/>
</svg>
