<svg width="503" height="110" viewBox="0 0 503 110" fill="none" xmlns="http://www.w3.org/2000/svg">
<path d="M152.8 88.56C148.907 88.56 145.387 87.8933 142.24 86.56C139.147 85.2267 136.693 83.3067 134.88 80.8C133.067 78.2933 132.133 75.3333 132.08 71.92H144.08C144.24 74.2133 145.04 76.0267 146.48 77.36C147.973 78.6933 150 79.36 152.56 79.36C155.173 79.36 157.227 78.7467 158.72 77.52C160.213 76.24 160.96 74.5867 160.96 72.56C160.96 70.9067 160.453 69.5467 159.44 68.48C158.427 67.4133 157.147 66.5867 155.6 66C154.107 65.36 152.027 64.6667 149.36 63.92C145.733 62.8533 142.773 61.8133 140.48 60.8C138.24 59.7333 136.293 58.16 134.64 56.08C133.04 53.9467 132.24 51.12 132.24 47.6C132.24 44.2933 133.067 41.4133 134.72 38.96C136.373 36.5067 138.693 34.64 141.68 33.36C144.667 32.0267 148.08 31.36 151.92 31.36C157.68 31.36 162.347 32.7733 165.92 35.6C169.547 38.3733 171.547 42.2667 171.92 47.28H159.6C159.493 45.36 158.667 43.7867 157.12 42.56C155.627 41.28 153.627 40.64 151.12 40.64C148.933 40.64 147.173 41.2 145.84 42.32C144.56 43.44 143.92 45.0667 143.92 47.2C143.92 48.6933 144.4 49.9467 145.36 50.96C146.373 51.92 147.6 52.72 149.04 53.36C150.533 53.9467 152.613 54.64 155.28 55.44C158.907 56.5067 161.867 57.5733 164.16 58.64C166.453 59.7067 168.427 61.3067 170.08 63.44C171.733 65.5733 172.56 68.3733 172.56 71.84C172.56 74.8267 171.787 77.6 170.24 80.16C168.693 82.72 166.427 84.7733 163.44 86.32C160.453 87.8133 156.907 88.56 152.8 88.56ZM207.23 43.04C210.59 43.04 213.577 43.7867 216.19 45.28C218.803 46.72 220.83 48.88 222.27 51.76C223.763 54.5867 224.51 58 224.51 62V88H213.31V63.52C213.31 60 212.43 57.3067 210.67 55.44C208.91 53.52 206.51 52.56 203.47 52.56C200.377 52.56 197.923 53.52 196.11 55.44C194.35 57.3067 193.47 60 193.47 63.52V88H182.27V28.8H193.47V49.2C194.91 47.28 196.83 45.7867 199.23 44.72C201.63 43.6 204.297 43.04 207.23 43.04ZM232.281 65.68C232.281 61.2 233.161 57.2267 234.921 53.76C236.734 50.2933 239.161 47.6267 242.201 45.76C245.294 43.8933 248.734 42.96 252.521 42.96C255.827 42.96 258.707 43.6267 261.161 44.96C263.667 46.2933 265.667 47.9733 267.161 50V43.68H278.441V88H267.161V81.52C265.721 83.6 263.721 85.3333 261.161 86.72C258.654 88.0533 255.747 88.72 252.441 88.72C248.707 88.72 245.294 87.76 242.201 85.84C239.161 83.92 236.734 81.2267 234.921 77.76C233.161 74.24 232.281 70.2133 232.281 65.68ZM267.161 65.84C267.161 63.12 266.627 60.8 265.561 58.88C264.494 56.9067 263.054 55.4133 261.241 54.4C259.427 53.3333 257.481 52.8 255.401 52.8C253.321 52.8 251.401 53.3067 249.641 54.32C247.881 55.3333 246.441 56.8267 245.321 58.8C244.254 60.72 243.721 63.0133 243.721 65.68C243.721 68.3467 244.254 70.6933 245.321 72.72C246.441 74.6933 247.881 76.2133 249.641 77.28C251.454 78.3467 253.374 78.88 255.401 78.88C257.481 78.88 259.427 78.3733 261.241 77.36C263.054 76.2933 264.494 74.8 265.561 72.88C266.627 70.9067 267.161 68.56 267.161 65.84ZM300.579 50.56C302.019 48.2133 303.886 46.3733 306.179 45.04C308.526 43.7067 311.193 43.04 314.179 43.04V54.8H311.219C307.699 54.8 305.033 55.6267 303.219 57.28C301.459 58.9333 300.579 61.8133 300.579 65.92V88H289.379V43.68H300.579V50.56ZM362.923 64.88C362.923 66.48 362.816 67.92 362.603 69.2H330.203C330.47 72.4 331.59 74.9067 333.563 76.72C335.536 78.5333 337.963 79.44 340.843 79.44C345.003 79.44 347.963 77.6533 349.723 74.08H361.803C360.523 78.3467 358.07 81.8667 354.443 84.64C350.816 87.36 346.363 88.72 341.083 88.72C336.816 88.72 332.976 87.7867 329.563 85.92C326.203 84 323.563 81.3067 321.643 77.84C319.776 74.3733 318.843 70.3733 318.843 65.84C318.843 61.2533 319.776 57.2267 321.643 53.76C323.51 50.2933 326.123 47.6267 329.483 45.76C332.843 43.8933 336.71 42.96 341.083 42.96C345.296 42.96 349.056 43.8667 352.363 45.68C355.723 47.4933 358.31 50.08 360.123 53.44C361.99 56.7467 362.923 60.56 362.923 64.88ZM351.323 61.68C351.27 58.8 350.23 56.5067 348.203 54.8C346.176 53.04 343.696 52.16 340.763 52.16C337.99 52.16 335.643 53.0133 333.723 54.72C331.856 56.3733 330.71 58.6933 330.283 61.68H351.323ZM382.298 41.2V55.2H401.098V64.08H382.298V78.88H403.498V88H371.098V32.08H403.498V41.2H382.298ZM426.716 52.88V74.32C426.716 75.8133 427.063 76.9067 427.756 77.6C428.503 78.24 429.73 78.56 431.436 78.56H436.636V88H429.596C420.156 88 415.436 83.4133 415.436 74.24V52.88H410.156V43.68H415.436V32.72H426.716V43.68H436.636V52.88H426.716ZM469.652 43.04C473.012 43.04 475.999 43.7867 478.612 45.28C481.225 46.72 483.252 48.88 484.692 51.76C486.185 54.5867 486.932 58 486.932 62V88H475.732V63.52C475.732 60 474.852 57.3067 473.092 55.44C471.332 53.52 468.932 52.56 465.892 52.56C462.799 52.56 460.345 53.52 458.532 55.44C456.772 57.3067 455.892 60 455.892 63.52V88H444.692V28.8H455.892V49.2C457.332 47.28 459.252 45.7867 461.652 44.72C464.052 43.6 466.719 43.04 469.652 43.04Z" fill="#04371D"/>
<mask id="path-2-inside-1_63_211" fill="white">
<path d="M44.1143 26.2908C44.1143 22.7659 42.4651 19.3853 39.5295 16.8928C36.5939 14.4003 32.6124 13 28.4608 13C24.3093 13 20.3278 14.4003 17.3922 16.8928C14.4566 19.3853 12.8074 22.7659 12.8074 26.2908C12.8074 29.8157 14.4566 33.1963 17.3922 35.6888C20.3278 38.1813 24.3093 39.5816 28.4608 39.5816C32.6124 39.5816 36.5939 38.1813 39.5295 35.6888C42.4651 33.1963 44.1143 29.8157 44.1143 26.2908ZM18.4995 26.2908C18.4995 25.1801 18.7572 24.0803 19.2578 23.0541C19.7584 22.028 20.4921 21.0956 21.4171 20.3102C22.3421 19.5249 23.4403 18.9019 24.6488 18.4768C25.8574 18.0518 27.1527 17.833 28.4608 17.833C29.769 17.833 31.0643 18.0518 32.2729 18.4768C33.4814 18.9019 34.5795 19.5249 35.5045 20.3102C36.4295 21.0956 37.1633 22.028 37.6639 23.0541C38.1645 24.0803 38.4221 25.1801 38.4221 26.2908C38.4221 28.5339 37.3726 30.6852 35.5045 32.2713C33.6364 33.8575 31.1027 34.7486 28.4608 34.7486C25.8189 34.7486 23.2852 33.8575 21.4171 32.2713C19.549 30.6852 18.4995 28.5339 18.4995 26.2908ZM8.53825 44.4146H32.3486C31.4151 45.9128 30.7206 47.5367 30.3108 49.2476H8.53825C7.78342 49.2476 7.05951 49.5022 6.52577 49.9554C5.99202 50.4086 5.69217 51.0232 5.69217 51.6641V54.0806C5.69217 60.1702 11.9479 66.7141 23.3151 68.2413C21.4822 69.3046 19.9567 70.7207 18.8695 72.3687C6.85906 69.6091 0 61.7506 0 54.0806V51.6641C0 49.7414 0.899563 47.8975 2.5008 46.5379C4.10203 45.1784 6.27377 44.4146 8.53825 44.4146ZM39.1564 44.4146C42.0253 41.4664 46.3684 39.5816 51.2295 39.5816C54.6384 39.5765 57.9556 40.5185 60.675 42.2637C63.3944 44.009 65.3667 46.4617 66.291 49.2476C67.1148 51.7342 67.0684 54.3706 66.1574 56.8351C65.2463 59.2997 63.51 61.4858 61.1604 63.1266C58.8108 64.7675 55.9495 65.7922 52.9256 66.0756C49.9017 66.3591 46.846 65.8891 44.1314 64.7229C42.0413 63.8197 40.2169 62.5293 38.7931 60.9471C37.3693 59.3648 36.3824 57.5311 35.9054 55.5815C35.4283 53.6319 35.4733 51.6162 36.037 49.6834C36.6007 47.7505 37.6687 45.9499 39.1621 44.4146H39.1564ZM42.2302 49.2476C41.6696 50.2517 41.3473 51.3397 41.2819 52.4495C41.2165 53.5592 41.4092 54.6691 41.849 55.7157C42.2887 56.7623 42.967 57.725 43.845 58.5491C44.723 59.3731 45.7835 60.0422 46.9661 60.5182C48.1486 60.9942 49.43 61.2678 50.7371 61.3233C52.0442 61.3789 53.3514 61.2153 54.584 60.8419C55.8166 60.4685 56.9505 59.8926 57.921 59.1471C58.8915 58.4017 59.6796 57.5012 60.2402 56.4971C61.3724 54.4687 61.5093 52.1414 60.6206 50.0273C59.7319 47.9132 57.8905 46.1855 55.5015 45.2241C53.1124 44.2628 50.3715 44.1466 47.8816 44.9011C45.3916 45.6557 43.3567 47.2192 42.2245 49.2476H42.2302ZM83.5895 72.3687C82.5053 70.7198 80.9831 69.3082 79.1439 68.2462C90.5055 66.7141 96.7668 60.1654 96.7668 54.0806V51.6641C96.7668 51.0232 96.467 50.4086 95.9333 49.9554C95.3995 49.5022 94.6756 49.2476 93.9208 49.2476H72.1482C71.7461 47.5625 71.0618 45.935 70.1161 44.4146H93.9208C96.1852 44.4146 98.357 45.1784 99.9582 46.5379C101.559 47.8975 102.459 49.7414 102.459 51.6641V54.0806C102.459 61.7506 95.5943 69.6043 83.5895 72.3687ZM76.7703 72.7892C75.2167 71.6312 73.2193 70.9938 71.1521 70.9962H31.3069C30.1848 70.9936 29.0732 71.1794 28.0359 71.5428C26.9987 71.9062 26.0562 72.4401 25.2628 73.1138C24.4693 73.7875 23.8405 74.5877 23.4125 75.4684C22.9845 76.3491 22.7657 77.2929 22.7687 78.2457V80.6622C22.7687 90.1881 33.3561 99.9942 51.2295 99.9942C69.1029 99.9942 79.6903 90.1881 79.6903 80.6622V78.2457C79.6903 76.0708 78.5633 74.1183 76.7703 72.7844V72.7892ZM28.4608 78.2457C28.4608 77.6048 28.7607 76.9901 29.2944 76.537C29.8282 76.0838 30.5521 75.8292 31.3069 75.8292H71.1521C71.9069 75.8292 72.6308 76.0838 73.1646 76.537C73.6983 76.9901 73.9982 77.6048 73.9982 78.2457V80.6622C73.9982 87.6121 65.847 95.1612 51.2295 95.1612C36.612 95.1612 28.4608 87.6121 28.4608 80.6622V78.2457ZM73.9982 13C78.1497 13 82.1312 14.4003 85.0668 16.8928C88.0024 19.3853 89.6516 22.7659 89.6516 26.2908C89.6516 29.8157 88.0024 33.1963 85.0668 35.6888C82.1312 38.1813 78.1497 39.5816 73.9982 39.5816C69.8466 39.5816 65.8651 38.1813 62.9295 35.6888C59.9939 33.1963 58.3447 29.8157 58.3447 26.2908C58.3447 22.7659 59.9939 19.3853 62.9295 16.8928C65.8651 14.4003 69.8466 13 73.9982 13ZM73.9982 17.833C71.3563 17.833 68.8226 18.7241 66.9545 20.3102C65.0864 21.8964 64.0369 24.0476 64.0369 26.2908C64.0369 28.5339 65.0864 30.6852 66.9545 32.2713C68.8226 33.8575 71.3563 34.7486 73.9982 34.7486C76.6401 34.7486 79.1738 33.8575 81.0419 32.2713C82.91 30.6852 83.9595 28.5339 83.9595 26.2908C83.9595 24.0476 82.91 21.8964 81.0419 20.3102C79.1738 18.7241 76.6401 17.833 73.9982 17.833Z"/>
</mask>
<path d="M44.1143 26.2908C44.1143 22.7659 42.4651 19.3853 39.5295 16.8928C36.5939 14.4003 32.6124 13 28.4608 13C24.3093 13 20.3278 14.4003 17.3922 16.8928C14.4566 19.3853 12.8074 22.7659 12.8074 26.2908C12.8074 29.8157 14.4566 33.1963 17.3922 35.6888C20.3278 38.1813 24.3093 39.5816 28.4608 39.5816C32.6124 39.5816 36.5939 38.1813 39.5295 35.6888C42.4651 33.1963 44.1143 29.8157 44.1143 26.2908ZM18.4995 26.2908C18.4995 25.1801 18.7572 24.0803 19.2578 23.0541C19.7584 22.028 20.4921 21.0956 21.4171 20.3102C22.3421 19.5249 23.4403 18.9019 24.6488 18.4768C25.8574 18.0518 27.1527 17.833 28.4608 17.833C29.769 17.833 31.0643 18.0518 32.2729 18.4768C33.4814 18.9019 34.5795 19.5249 35.5045 20.3102C36.4295 21.0956 37.1633 22.028 37.6639 23.0541C38.1645 24.0803 38.4221 25.1801 38.4221 26.2908C38.4221 28.5339 37.3726 30.6852 35.5045 32.2713C33.6364 33.8575 31.1027 34.7486 28.4608 34.7486C25.8189 34.7486 23.2852 33.8575 21.4171 32.2713C19.549 30.6852 18.4995 28.5339 18.4995 26.2908ZM8.53825 44.4146H32.3486C31.4151 45.9128 30.7206 47.5367 30.3108 49.2476H8.53825C7.78342 49.2476 7.05951 49.5022 6.52577 49.9554C5.99202 50.4086 5.69217 51.0232 5.69217 51.6641V54.0806C5.69217 60.1702 11.9479 66.7141 23.3151 68.2413C21.4822 69.3046 19.9567 70.7207 18.8695 72.3687C6.85906 69.6091 0 61.7506 0 54.0806V51.6641C0 49.7414 0.899563 47.8975 2.5008 46.5379C4.10203 45.1784 6.27377 44.4146 8.53825 44.4146ZM39.1564 44.4146C42.0253 41.4664 46.3684 39.5816 51.2295 39.5816C54.6384 39.5765 57.9556 40.5185 60.675 42.2637C63.3944 44.009 65.3667 46.4617 66.291 49.2476C67.1148 51.7342 67.0684 54.3706 66.1574 56.8351C65.2463 59.2997 63.51 61.4858 61.1604 63.1266C58.8108 64.7675 55.9495 65.7922 52.9256 66.0756C49.9017 66.3591 46.846 65.8891 44.1314 64.7229C42.0413 63.8197 40.2169 62.5293 38.7931 60.9471C37.3693 59.3648 36.3824 57.5311 35.9054 55.5815C35.4283 53.6319 35.4733 51.6162 36.037 49.6834C36.6007 47.7505 37.6687 45.9499 39.1621 44.4146H39.1564ZM42.2302 49.2476C41.6696 50.2517 41.3473 51.3397 41.2819 52.4495C41.2165 53.5592 41.4092 54.6691 41.849 55.7157C42.2887 56.7623 42.967 57.725 43.845 58.5491C44.723 59.3731 45.7835 60.0422 46.9661 60.5182C48.1486 60.9942 49.43 61.2678 50.7371 61.3233C52.0442 61.3789 53.3514 61.2153 54.584 60.8419C55.8166 60.4685 56.9505 59.8926 57.921 59.1471C58.8915 58.4017 59.6796 57.5012 60.2402 56.4971C61.3724 54.4687 61.5093 52.1414 60.6206 50.0273C59.7319 47.9132 57.8905 46.1855 55.5015 45.2241C53.1124 44.2628 50.3715 44.1466 47.8816 44.9011C45.3916 45.6557 43.3567 47.2192 42.2245 49.2476H42.2302ZM83.5895 72.3687C82.5053 70.7198 80.9831 69.3082 79.1439 68.2462C90.5055 66.7141 96.7668 60.1654 96.7668 54.0806V51.6641C96.7668 51.0232 96.467 50.4086 95.9333 49.9554C95.3995 49.5022 94.6756 49.2476 93.9208 49.2476H72.1482C71.7461 47.5625 71.0618 45.935 70.1161 44.4146H93.9208C96.1852 44.4146 98.357 45.1784 99.9582 46.5379C101.559 47.8975 102.459 49.7414 102.459 51.6641V54.0806C102.459 61.7506 95.5943 69.6043 83.5895 72.3687ZM76.7703 72.7892C75.2167 71.6312 73.2193 70.9938 71.1521 70.9962H31.3069C30.1848 70.9936 29.0732 71.1794 28.0359 71.5428C26.9987 71.9062 26.0562 72.4401 25.2628 73.1138C24.4693 73.7875 23.8405 74.5877 23.4125 75.4684C22.9845 76.3491 22.7657 77.2929 22.7687 78.2457V80.6622C22.7687 90.1881 33.3561 99.9942 51.2295 99.9942C69.1029 99.9942 79.6903 90.1881 79.6903 80.6622V78.2457C79.6903 76.0708 78.5633 74.1183 76.7703 72.7844V72.7892ZM28.4608 78.2457C28.4608 77.6048 28.7607 76.9901 29.2944 76.537C29.8282 76.0838 30.5521 75.8292 31.3069 75.8292H71.1521C71.9069 75.8292 72.6308 76.0838 73.1646 76.537C73.6983 76.9901 73.9982 77.6048 73.9982 78.2457V80.6622C73.9982 87.6121 65.847 95.1612 51.2295 95.1612C36.612 95.1612 28.4608 87.6121 28.4608 80.6622V78.2457ZM73.9982 13C78.1497 13 82.1312 14.4003 85.0668 16.8928C88.0024 19.3853 89.6516 22.7659 89.6516 26.2908C89.6516 29.8157 88.0024 33.1963 85.0668 35.6888C82.1312 38.1813 78.1497 39.5816 73.9982 39.5816C69.8466 39.5816 65.8651 38.1813 62.9295 35.6888C59.9939 33.1963 58.3447 29.8157 58.3447 26.2908C58.3447 22.7659 59.9939 19.3853 62.9295 16.8928C65.8651 14.4003 69.8466 13 73.9982 13ZM73.9982 17.833C71.3563 17.833 68.8226 18.7241 66.9545 20.3102C65.0864 21.8964 64.0369 24.0476 64.0369 26.2908C64.0369 28.5339 65.0864 30.6852 66.9545 32.2713C68.8226 33.8575 71.3563 34.7486 73.9982 34.7486C76.6401 34.7486 79.1738 33.8575 81.0419 32.2713C82.91 30.6852 83.9595 28.5339 83.9595 26.2908C83.9595 24.0476 82.91 21.8964 81.0419 20.3102C79.1738 18.7241 76.6401 17.833 73.9982 17.833Z" fill="#04371D" stroke="#04371D" stroke-width="2" mask="url(#path-2-inside-1_63_211)"/>
</svg>
