<svg width="61" height="51" viewBox="0 0 61 51" fill="none" xmlns="http://www.w3.org/2000/svg">
<path d="M19.1616 50.5C42.1815 50.5 54.7742 31.2587 54.7742 14.6019C54.7742 14.0635 54.7742 13.5174 54.7513 12.9789C57.203 11.1886 59.3189 8.97203 61 6.43312C58.7099 7.45172 56.283 8.12305 53.7982 8.42532C56.4156 6.84709 58.3759 4.36388 59.3149 1.43723C56.8558 2.90686 54.1642 3.93853 51.3582 4.48707C49.4717 2.46034 46.9753 1.1177 44.2558 0.667109C41.5363 0.216517 38.7454 0.683123 36.3154 1.99465C33.8853 3.30618 31.9518 5.38944 30.8143 7.92173C29.6769 10.454 29.3989 13.294 30.0234 16.0018C25.0471 15.7501 20.1789 14.446 15.7344 12.1741C11.2898 9.90223 7.36836 6.71327 4.22425 2.81408C2.62811 5.59502 2.141 8.88453 2.86184 12.0146C3.58268 15.1447 5.45742 17.8807 8.10537 19.667C6.12112 19.599 4.18049 19.0615 2.44 18.0979V18.2709C2.44342 21.1842 3.44386 24.0069 5.27221 26.2619C7.10055 28.5169 9.64466 30.066 12.4745 30.6472C11.4004 30.9457 10.2908 31.0945 9.17669 31.0895C8.39125 31.0919 7.60739 31.0185 6.83581 30.8703C7.63562 33.3781 9.19298 35.5707 11.2898 37.141C13.3865 38.7114 15.9177 39.5808 18.5288 39.6275C14.0931 43.1419 8.61397 45.048 2.97375 45.0388C1.97991 45.043 0.986763 44.9852 0 44.8657C5.72453 48.5473 12.3727 50.5021 19.1616 50.5V50.5Z" fill="#04371D"/>
</svg>
